Coordinates
version=1
nRows=13
nColumns=38
inDegrees=no

Units are S.I. units (second, meters, Newtons, ...)
If the header above contains a line with 'inDegrees', this indicates whether rotational values are in degrees (yes) or radians (no).

endheader
time	pelvis_tilt	pelvis_list	pelvis_rotation	pelvis_tx	pelvis_ty	pelvis_tz	hip_flexion_r	hip_adduction_r	hip_rotation_r	knee_angle_r	ankle_angle_r	subtalar_angle_r	mtp_angle_r	hip_flexion_l	hip_adduction_l	hip_rotation_l	knee_angle_l	ankle_angle_l	subtalar_angle_l	mtp_angle_l	lumbar_extension	lumbar_bending	lumbar_rotation	arm_flex_r	arm_add_r	arm_rot_r	elbow_flex_r	pro_sup_r	wrist_flex_r	wrist_dev_r	arm_flex_l	arm_add_l	arm_rot_l	elbow_flex_l	pro_sup_l	wrist_flex_l	wrist_dev_l
100	-2.24062	1.11337	0.679383	0.769918	1.80085	0.947515	0.701625	0.238166	-0.313866	0.17447	-0.293787	0	0	-0.0370849	-0.495413	-0.547893	0.353444	0.0157909	0	0	0.0801661	0.477092	-0.0548126	0.0418286	-0.398233	0.194676	0.396355	1.5708	0	0	-0.162452	-0.19074	0.522626	0.500742	1.17331	0	0
100.01	-2.22761	1.1134	0.678128	0.769196	1.79319	0.94859	0.694582	0.238265	-0.304924	0.178739	-0.3021	0	0	-0.0306811	-0.504058	-0.52973	0.38052	0.00662402	0	0	0.0787457	0.48595	-0.0596511	0.0629921	-0.399951	0.194578	0.38484	1.5708	0	0	-0.159373	-0.192527	0.536788	0.504386	1.16038	0	0
100.02	-2.22296	1.10885	0.677167	0.767606	1.78361	0.949309	0.694437	0.242704	-0.305149	0.191809	-0.302817	0	0	-0.0270823	-0.51305	-0.517959	0.402319	-0.00359177	0	0	0.0836603	0.496817	-0.0574075	0.0758328	-0.403066	0.19098	0.378128	1.5708	0	0	-0.160851	-0.192353	0.551708	0.506639	1.15044	0	0
100.03	-2.22162	1.23026	0.740446	0.770933	1.78029	0.963716	0.617228	0.119645	-0.340023	0.229553	-0.287736	0	0	-0.071024	-0.386162	-0.339479	0.370233	-0.0661103	0	0	-0.0261474	0.390927	-0.0832653	0.147889	-0.358787	0.159182	0.323794	1.5708	0	0	-0.089415	-0.215348	0.612959	0.465331	1.12113	0	0
100.04	-2.22467	1.22693	0.745141	0.769185	1.77002	0.964788	0.617973	0.122229	-0.339206	0.244972	-0.288418	0	0	-0.0636436	-0.391445	-0.327147	0.398177	-0.0756108	0	0	-0.0191875	0.397936	-0.078965	0.15894	-0.361898	0.15878	0.319587	1.5708	0	0	-0.0955512	-0.21131	0.604551	0.4648	1.12924	0	0
100.05	-2.22685	1.09742	0.687721	0.762413	1.75302	0.95229	0.698647	0.250694	-0.312189	0.240104	-0.300716	0	0	-0.00374946	-0.534762	-0.479677	0.487073	-0.0464742	0	0	0.106981	0.520049	-0.050999	0.111411	-0.408908	0.183848	0.363036	1.5708	0	0	-0.180053	-0.184341	0.539313	0.510828	1.1624	0	0
100.06	-2.24598	1.22274	0.776298	0.765992	1.75	0.967057	0.620341	0.118793	-0.342801	0.273115	-0.281604	0	0	-0.0323737	-0.396267	-0.286004	0.47257	-0.105149	0	0	0.000451588	0.403765	-0.0779221	0.179239	-0.363412	0.144455	0.318189	1.5708	0	0	-0.103946	-0.205133	0.596099	0.458385	1.14062	0	0
100.07	-2.25909	1.22407	0.791317	0.763723	1.74012	0.968474	0.618098	0.116826	-0.342195	0.284262	-0.275863	0	0	-0.0160473	-0.395803	-0.270037	0.516637	-0.120058	0	0	0.00640392	0.4015	-0.074752	0.190978	-0.361446	0.140372	0.319471	1.5708	0	0	-0.109474	-0.204215	0.584721	0.457559	1.15084	0	0
100.08	-2.26775	1.2244	0.804177	0.761596	1.73023	0.969904	0.613943	0.115267	-0.347696	0.292644	-0.270121	0	0	0.00372913	-0.397863	-0.255059	0.566075	-0.136049	0	0	0.0130367	0.400404	-0.0738609	0.202503	-0.359114	0.137638	0.323126	1.5708	0	0	-0.116247	-0.203718	0.569863	0.458983	1.16475	0	0
100.09	-2.25333	1.0965	0.722436	0.753272	1.71312	0.957471	0.687666	0.251602	-0.31612	0.278288	-0.275463	0	0	0.0676188	-0.554003	-0.420673	0.670236	-0.127835	0	0	0.135359	0.519734	-0.0442569	0.159767	-0.398176	0.169785	0.372855	1.5708	0	0	-0.217066	-0.1764	0.44989	0.523716	1.24534	0	0
100.1	-2.25407	1.09491	0.727783	0.751026	1.70329	0.958822	0.680732	0.253687	-0.321447	0.281006	-0.268547	0	0	0.0916094	-0.563535	-0.409366	0.724798	-0.151438	0	0	0.142848	0.521064	-0.0434401	0.169353	-0.394742	0.162927	0.383849	1.5708	0	0	-0.225348	-0.177939	0.437505	0.530045	1.25057	0	0
100.11	-2.25512	1.09452	0.734182	0.749096	1.69375	0.960259	0.672368	0.254317	-0.325865	0.282413	-0.26027	0	0	0.117155	-0.571761	-0.399997	0.78	-0.175789	0	0	0.149131	0.521404	-0.0423461	0.179645	-0.391494	0.157998	0.396936	1.5708	0	0	-0.232877	-0.179902	0.425645	0.536125	1.25033	0	0
100.12	-2.25521	1.09539	0.740022	0.747378	1.6845	0.961784	0.662575	0.254011	-0.329762	0.283413	-0.251716	0	0	0.142575	-0.579368	-0.393735	0.834656	-0.198714	0	0	0.153628	0.521005	-0.040344	0.191366	-0.388732	0.158622	0.410476	1.5708	0	0	-0.235588	-0.181699	0.424012	0.537995	1.24365	0	0
